<svg width="46" height="46" viewBox="0 0 46 46" fill="none" xmlns="http://www.w3.org/2000/svg">
<path d="M36.4167 26.8334V34.5001H32.5833V26.8334H36.4167ZM13.4167 26.8334V34.5001H11.5C10.4458 34.5001 9.58333 33.6376 9.58333 32.5834V26.8334H13.4167ZM23 1.91675C13.4742 1.91675 5.75 9.64091 5.75 19.1667V32.5834C5.75 35.7651 8.31833 38.3334 11.5 38.3334H17.25V23.0001H9.58333V19.1667C9.58333 11.7492 15.5825 5.75008 23 5.75008C30.4175 5.75008 36.4167 11.7492 36.4167 19.1667V23.0001H28.75V38.3334H36.4167V40.2501H23V44.0834H34.5C37.6817 44.0834 40.25 41.5151 40.25 38.3334V19.1667C40.25 9.64091 32.5258 1.91675 23 1.91675Z" fill="white"/>
</svg>
