<svg width="46" height="46" viewBox="0 0 46 46" fill="none" xmlns="http://www.w3.org/2000/svg">
<path d="M34.5001 16.2917H32.5834V12.4583C32.5834 7.16833 28.2901 2.875 23.0001 2.875C17.7101 2.875 13.4167 7.16833 13.4167 12.4583V16.2917H11.5001C9.39175 16.2917 7.66675 18.0167 7.66675 20.125V39.2917C7.66675 41.4 9.39175 43.125 11.5001 43.125H34.5001C36.6084 43.125 38.3334 41.4 38.3334 39.2917V20.125C38.3334 18.0167 36.6084 16.2917 34.5001 16.2917ZM17.2501 12.4583C17.2501 9.27667 19.8184 6.70833 23.0001 6.70833C26.1817 6.70833 28.7501 9.27667 28.7501 12.4583V16.2917H17.2501V12.4583ZM34.5001 39.2917H11.5001V20.125H34.5001V39.2917ZM23.0001 33.5417C25.1084 33.5417 26.8334 31.8167 26.8334 29.7083C26.8334 27.6 25.1084 25.875 23.0001 25.875C20.8917 25.875 19.1667 27.6 19.1667 29.7083C19.1667 31.8167 20.8917 33.5417 23.0001 33.5417Z" fill="white"/>
</svg>
