<svg width="46" height="46" viewBox="0 0 46 46" fill="none" xmlns="http://www.w3.org/2000/svg">
<path d="M38.3333 11.4999H30.6666V7.66659C30.6666 5.55825 28.9416 3.83325 26.8333 3.83325H19.1666C17.0583 3.83325 15.3333 5.55825 15.3333 7.66659V11.4999H7.66659C5.55825 11.4999 3.83325 13.2249 3.83325 15.3333V38.3333C3.83325 40.4416 5.55825 42.1666 7.66659 42.1666H38.3333C40.4416 42.1666 42.1666 40.4416 42.1666 38.3333V15.3333C42.1666 13.2249 40.4416 11.4999 38.3333 11.4999ZM19.1666 7.66659H26.8333V11.4999H19.1666V7.66659ZM38.3333 38.3333H7.66659V15.3333H38.3333V38.3333Z" fill="white"/>
<path d="M24.9166 19.1666H21.0833V24.9166H15.3333V28.7499H21.0833V34.4999H24.9166V28.7499H30.6666V24.9166H24.9166V19.1666Z" fill="white"/>
</svg>
