<svg width="46" height="46" viewBox="0 0 46 46" fill="none" xmlns="http://www.w3.org/2000/svg">
<path d="M42.1666 5.75L38.9658 8.95083L35.7841 5.75L32.5833 8.95083L29.3824 5.75L26.2008 8.95083L22.9999 5.75L19.7991 8.95083L16.6174 5.75L13.4166 8.95083L10.2158 5.75L7.03409 8.95083L3.83325 5.75V36.4167C3.83325 38.525 5.55825 40.25 7.66659 40.25H38.3333C40.4416 40.25 42.1666 38.525 42.1666 36.4167V5.75ZM21.0833 36.4167H7.66659V24.9167H21.0833V36.4167ZM38.3333 36.4167H24.9166V32.5833H38.3333V36.4167ZM38.3333 28.75H24.9166V24.9167H38.3333V28.75ZM38.3333 21.0833H7.66659V15.3333H38.3333V21.0833Z" fill="white"/>
</svg>
