<svg width="46" height="46" viewBox="0 0 46 46" fill="none" xmlns="http://www.w3.org/2000/svg">
<path d="M17.2499 26.3541C12.7649 26.3541 3.83325 28.5966 3.83325 33.0624V36.4166H30.6666V33.0624C30.6666 28.5966 21.7349 26.3541 17.2499 26.3541ZM8.31825 32.5833C9.92825 31.4716 13.8191 30.1874 17.2499 30.1874C20.6808 30.1874 24.5716 31.4716 26.1816 32.5833H8.31825ZM17.2499 22.9999C20.9491 22.9999 23.9583 19.9908 23.9583 16.2916C23.9583 12.5924 20.9491 9.58325 17.2499 9.58325C13.5508 9.58325 10.5416 12.5924 10.5416 16.2916C10.5416 19.9908 13.5508 22.9999 17.2499 22.9999ZM17.2499 13.4166C18.8408 13.4166 20.1249 14.7008 20.1249 16.2916C20.1249 17.8824 18.8408 19.1666 17.2499 19.1666C15.6591 19.1666 14.3749 17.8824 14.3749 16.2916C14.3749 14.7008 15.6591 13.4166 17.2499 13.4166ZM30.7433 26.4691C32.9666 28.0791 34.4999 30.2258 34.4999 33.0624V36.4166H42.1666V33.0624C42.1666 29.1908 35.4583 26.9866 30.7433 26.4691ZM28.7499 22.9999C32.4491 22.9999 35.4583 19.9908 35.4583 16.2916C35.4583 12.5924 32.4491 9.58325 28.7499 9.58325C27.7149 9.58325 26.7566 9.83242 25.8749 10.2541C27.0824 11.9599 27.7916 14.0491 27.7916 16.2916C27.7916 18.5341 27.0824 20.6233 25.8749 22.3291C26.7566 22.7508 27.7149 22.9999 28.7499 22.9999Z" fill="white"/>
</svg>
