<svg width="46" height="46" viewBox="0 0 46 46" fill="none" xmlns="http://www.w3.org/2000/svg">
<path d="M39.9433 10.0049C39.8475 9.77492 39.7325 9.56409 39.5983 9.35325C39.33 8.95075 38.9658 8.58659 38.5633 8.31825C38.3525 8.18409 38.1417 8.06909 37.9117 7.97325C37.4517 7.78159 36.9533 7.66659 36.4167 7.66659H34.5V3.83325H30.6667V7.66659H15.3333V3.83325H11.5V7.66659H9.58333C8.77833 7.66659 8.05 7.91575 7.43667 8.31825C7.03417 8.58659 6.67 8.95075 6.40167 9.35325C6.2675 9.56409 6.1525 9.77492 6.05667 10.0049C5.865 10.4649 5.75 10.9633 5.75 11.4999V38.3333C5.75 40.4416 7.45583 42.1666 9.58333 42.1666H36.4167C36.9533 42.1666 37.4517 42.0516 37.9117 41.8599C38.1417 41.7641 38.3525 41.6491 38.5633 41.5149C38.9658 41.2466 39.33 40.8824 39.5983 40.4799C40.0008 39.8666 40.25 39.1191 40.25 38.3333V11.4999C40.25 10.9633 40.135 10.4649 39.9433 10.0049ZM9.58333 38.3333V11.4999H36.4167V38.3333H9.58333ZM23 26.6033C19.1092 26.6033 11.5 28.6733 11.5 33.4649V36.4166H34.5V33.4841C34.5 28.6733 26.8908 26.6033 23 26.6033ZM15.9275 32.5833C17.25 31.5099 20.4892 30.4366 23 30.4366C25.5108 30.4366 28.7692 31.5099 30.0725 32.5833H15.9275ZM23 24.9166C26.1625 24.9166 28.75 22.3291 28.75 19.1666C28.75 16.0041 26.1625 13.4166 23 13.4166C19.8375 13.4166 17.25 16.0041 17.25 19.1666C17.25 22.3291 19.8375 24.9166 23 24.9166ZM23 17.2499C24.0542 17.2499 24.9167 18.1124 24.9167 19.1666C24.9167 20.2208 24.0542 21.0833 23 21.0833C21.9458 21.0833 21.0833 20.2208 21.0833 19.1666C21.0833 18.1124 21.9458 17.2499 23 17.2499Z" fill="white"/>
</svg>
