<svg width="46" height="46" viewBox="0 0 46 46" fill="none" xmlns="http://www.w3.org/2000/svg">
<path d="M23.0001 11.5001C25.1084 11.5001 26.8334 13.2251 26.8334 15.3334C26.8334 17.4417 25.1084 19.1667 23.0001 19.1667C20.8917 19.1667 19.1667 17.4417 19.1667 15.3334C19.1667 13.2251 20.8917 11.5001 23.0001 11.5001ZM23.0001 30.6667C28.1751 30.6667 34.1167 33.1392 34.5001 34.5001H11.5001C11.9409 33.1201 17.8442 30.6667 23.0001 30.6667ZM23.0001 7.66675C18.7642 7.66675 15.3334 11.0976 15.3334 15.3334C15.3334 19.5692 18.7642 23.0001 23.0001 23.0001C27.2359 23.0001 30.6667 19.5692 30.6667 15.3334C30.6667 11.0976 27.2359 7.66675 23.0001 7.66675ZM23.0001 26.8334C17.8826 26.8334 7.66675 29.4017 7.66675 34.5001V38.3334H38.3334V34.5001C38.3334 29.4017 28.1176 26.8334 23.0001 26.8334Z" fill="white"/>
</svg>
