<svg width="36" height="36" viewBox="0 0 36 36" fill="none" xmlns="http://www.w3.org/2000/svg">
<path d="M23.9648 21.7074H22.7798L22.3598 21.3024C24.1598 19.2024 25.0898 16.3374 24.5798 13.2924C23.8748 9.12236 20.3948 5.79236 16.1948 5.28236C9.8498 4.50236 4.50981 9.84236 5.28981 16.1874C5.79981 20.3874 9.12981 23.8674 13.2998 24.5724C16.3448 25.0824 19.2098 24.1524 21.3098 22.3524L21.7148 22.7724V23.9574L28.0898 30.3324C28.7048 30.9474 29.7098 30.9474 30.3248 30.3324C30.9398 29.7174 30.9398 28.7124 30.3248 28.0974L23.9648 21.7074ZM14.9648 21.7074C11.2298 21.7074 8.21481 18.6924 8.21481 14.9574C8.21481 11.2224 11.2298 8.20736 14.9648 8.20736C18.6998 8.20736 21.7148 11.2224 21.7148 14.9574C21.7148 18.6924 18.6998 21.7074 14.9648 21.7074Z" fill="black" fill-opacity="0.25"/>
</svg>
