<svg width="46" height="46" viewBox="0 0 46 46" fill="none" xmlns="http://www.w3.org/2000/svg">
<path d="M34.5 30.8966C33.0433 30.8966 31.74 31.4716 30.7433 32.3724L17.0775 24.4182C17.1733 23.9774 17.25 23.5366 17.25 23.0766C17.25 22.6166 17.1733 22.1757 17.0775 21.7349L30.59 13.8574C31.625 14.8157 32.9858 15.4099 34.5 15.4099C37.6817 15.4099 40.25 12.8416 40.25 9.65991C40.25 6.47825 37.6817 3.90991 34.5 3.90991C31.3183 3.90991 28.75 6.47825 28.75 9.65991C28.75 10.1199 28.8267 10.5607 28.9225 11.0016L15.41 18.8791C14.375 17.9207 13.0142 17.3266 11.5 17.3266C8.31833 17.3266 5.75 19.8949 5.75 23.0766C5.75 26.2582 8.31833 28.8266 11.5 28.8266C13.0142 28.8266 14.375 28.2324 15.41 27.2741L29.0567 35.2474C28.9608 35.6499 28.9033 36.0716 28.9033 36.4932C28.9033 39.5791 31.4142 42.0899 34.5 42.0899C37.5858 42.0899 40.0967 39.5791 40.0967 36.4932C40.0967 33.4074 37.5858 30.8966 34.5 30.8966ZM34.5 7.74325C35.5542 7.74325 36.4167 8.60575 36.4167 9.65991C36.4167 10.7141 35.5542 11.5766 34.5 11.5766C33.4458 11.5766 32.5833 10.7141 32.5833 9.65991C32.5833 8.60575 33.4458 7.74325 34.5 7.74325ZM11.5 24.9932C10.4458 24.9932 9.58333 24.1307 9.58333 23.0766C9.58333 22.0224 10.4458 21.1599 11.5 21.1599C12.5542 21.1599 13.4167 22.0224 13.4167 23.0766C13.4167 24.1307 12.5542 24.9932 11.5 24.9932ZM34.5 38.4482C33.4458 38.4482 32.5833 37.5857 32.5833 36.5316C32.5833 35.4774 33.4458 34.6149 34.5 34.6149C35.5542 34.6149 36.4167 35.4774 36.4167 36.5316C36.4167 37.5857 35.5542 38.4482 34.5 38.4482Z" fill="white"/>
</svg>
