<svg width="35" height="35" viewBox="0 0 35 35" fill="none" xmlns="http://www.w3.org/2000/svg">
<path d="M26.25 23.5084C25.1417 23.5084 24.15 23.9459 23.3917 24.6313L12.9937 18.5793C13.0667 18.2438 13.125 17.9084 13.125 17.5584C13.125 17.2084 13.0667 16.873 12.9937 16.5376L23.275 10.5438C24.0625 11.273 25.0979 11.7251 26.25 11.7251C28.6708 11.7251 30.625 9.77093 30.625 7.3501C30.625 4.92926 28.6708 2.9751 26.25 2.9751C23.8292 2.9751 21.875 4.92926 21.875 7.3501C21.875 7.7001 21.9333 8.03551 22.0063 8.37093L11.725 14.3647C10.9375 13.6355 9.90208 13.1834 8.75 13.1834C6.32917 13.1834 4.375 15.1376 4.375 17.5584C4.375 19.9793 6.32917 21.9334 8.75 21.9334C9.90208 21.9334 10.9375 21.4813 11.725 20.7522L22.1083 26.8188C22.0354 27.1251 21.9917 27.4459 21.9917 27.7668C21.9917 30.1147 23.9021 32.0251 26.25 32.0251C28.5979 32.0251 30.5083 30.1147 30.5083 27.7668C30.5083 25.4188 28.5979 23.5084 26.25 23.5084Z" fill="black"/>
</svg>
