<svg width="46" height="46" viewBox="0 0 46 46" fill="none" xmlns="http://www.w3.org/2000/svg">
<path d="M34.4999 20.0867V11.5001C34.4999 9.39175 32.7749 7.66675 30.6666 7.66675H7.66659C5.55825 7.66675 3.83325 9.39175 3.83325 11.5001V34.5001C3.83325 36.6084 5.55825 38.3334 7.66659 38.3334H30.6666C32.7749 38.3334 34.4999 36.6084 34.4999 34.5001V25.9134L42.1666 33.5417V12.4584L34.4999 20.0867ZM30.6666 34.5001H7.66659V11.5001H30.6666V34.5001Z" fill="white"/>
<path d="M19.1666 23.0001C21.2837 23.0001 22.9999 21.2838 22.9999 19.1667C22.9999 17.0497 21.2837 15.3334 19.1666 15.3334C17.0495 15.3334 15.3333 17.0497 15.3333 19.1667C15.3333 21.2838 17.0495 23.0001 19.1666 23.0001Z" fill="white"/>
<path d="M26.8333 29.5742C26.8333 28.0217 25.9133 26.6417 24.4949 26.0284C22.8658 25.3192 21.0641 24.9167 19.1666 24.9167C17.2691 24.9167 15.4674 25.3192 13.8383 26.0284C12.4199 26.6417 11.4999 28.0217 11.4999 29.5742V30.6667H26.8333V29.5742Z" fill="white"/>
</svg>
