<svg width="46" height="46" viewBox="0 0 46 46" fill="none" xmlns="http://www.w3.org/2000/svg">
<path d="M18.5534 25.2808L23.0001 21.9075L27.4276 25.2808L25.7409 19.8183L30.1876 16.2917H24.7442L23.0001 10.9058L21.2559 16.2917H15.8126L20.2401 19.8183L18.5534 25.2808ZM38.3334 18.2083C38.3334 9.73667 31.4717 2.875 23.0001 2.875C14.5284 2.875 7.66675 9.73667 7.66675 18.2083C7.66675 22.0992 9.12341 25.6258 11.5001 28.3283V43.125L23.0001 39.2917L34.5001 43.125V28.3283C36.8767 25.6258 38.3334 22.0992 38.3334 18.2083ZM23.0001 6.70833C29.3442 6.70833 34.5001 11.8642 34.5001 18.2083C34.5001 24.5525 29.3442 29.7083 23.0001 29.7083C16.6559 29.7083 11.5001 24.5525 11.5001 18.2083C11.5001 11.8642 16.6559 6.70833 23.0001 6.70833ZM23.0001 35.4583L15.3334 37.4133V31.4717C17.5951 32.775 20.2017 33.5417 23.0001 33.5417C25.7984 33.5417 28.4051 32.775 30.6667 31.4717V37.4133L23.0001 35.4583Z" fill="white"/>
</svg>
