<svg width="50" height="48" viewBox="0 0 50 48" fill="none" xmlns="http://www.w3.org/2000/svg">
<path d="M0.906116 25.6817V22.3121C1.00791 21.5608 1.08206 20.797 1.21653 20.0482C2.18669 14.6389 4.64478 10.0235 8.72148 6.30336C12.0924 3.18697 16.3057 1.12275 20.841 0.365658C21.6553 0.225417 22.4747 0.123991 23.294 0.00378418H26.6871C27.46 0.107713 28.2391 0.181588 29.0057 0.319325C35.1497 1.42247 40.2141 4.37505 44.0194 9.30727C48.6327 15.2901 50.0917 22.0479 48.4505 29.3981C47.2164 34.9238 44.287 39.4691 39.7793 42.9276C34.2386 47.1849 27.9488 48.7576 21.0446 47.6707C16.3534 46.9319 12.2314 44.916 8.72901 41.7005C4.74028 38.0408 2.25831 33.5469 1.28312 28.2185C1.13106 27.3783 1.03053 26.5281 0.906116 25.6817ZM37.0246 23.995C37.0246 22.5588 37.0385 21.1226 37.0246 19.6864C37.0345 19.0629 36.9853 18.4399 36.8776 17.8257C36.1525 14.3046 33.2935 12.0032 29.6793 11.9982C26.5451 11.9931 23.4109 11.9931 20.2767 11.9982C19.7759 11.9965 19.2762 12.0447 18.785 12.1421C15.2764 12.8734 12.959 15.7133 12.9502 19.2794C12.9427 22.4173 12.9427 25.5552 12.9502 28.6931C12.9483 29.1922 12.9972 29.6901 13.096 30.1794C13.8312 33.6691 16.6889 35.9769 20.2705 35.9831C23.4206 35.9906 26.5702 35.9906 29.7195 35.9831C30.2058 35.9859 30.6912 35.9406 31.1685 35.8479C34.6973 35.1229 37.0146 32.278 37.0272 28.6793C37.0322 27.1179 37.0246 25.5565 37.0246 23.995Z" fill="white"/>
</svg>
