<svg width="49" height="48" viewBox="0 0 49 48" fill="none" xmlns="http://www.w3.org/2000/svg">
<path d="M23.2253 0.0012207H26.6121C27.3849 0.105149 28.1628 0.184034 28.9307 0.316762C32.6417 0.957863 36.0448 2.3465 39.0747 4.5841C44.2447 8.40191 47.4505 13.4606 48.6255 19.7752C48.7813 20.6141 48.8769 21.4644 49.0025 22.3096V25.6829C48.9711 25.8193 48.9347 25.9533 48.9108 26.0898C48.6783 27.4384 48.5501 28.8157 48.2007 30.1343C44.6054 43.7151 30.1497 51.2956 16.8413 46.6038C5.88172 42.7459 -0.803864 31.4691 1.14903 20.0582C2.08024 14.6201 4.58608 9.99715 8.68163 6.26949C12.049 3.16967 16.2517 1.11726 20.7735 0.364344C21.5866 0.222851 22.4072 0.121427 23.2253 0.0012207ZM19.2341 29.6772C19.028 29.8125 18.896 29.9089 18.754 29.9915C17.1631 30.916 15.3445 31.3787 13.5035 31.3276C13.3037 31.3276 13.1014 31.5254 12.9003 31.6318C13.0194 31.8117 13.1491 31.9844 13.2887 32.149C13.385 32.2266 13.4937 32.2876 13.6104 32.3293C17.2648 34.1887 21.0625 34.4755 24.9432 33.2196C30.9753 31.2662 34.3483 25.5451 34.5028 20.1108C34.5192 19.536 34.6763 19.1253 35.1136 18.7334C35.7005 18.2025 36.2057 17.5777 36.7196 16.9704C36.8252 16.8452 36.8151 16.621 36.8591 16.4432C36.6861 16.4317 36.5123 16.4405 36.3414 16.4695C35.9078 16.5947 35.4843 16.755 35.091 16.889C35.468 16.2341 35.845 15.6093 36.183 14.9669C36.2509 14.8417 36.2044 14.6527 36.2107 14.4924C36.0377 14.4881 35.8648 14.5066 35.6967 14.5475C34.9854 14.8229 34.2842 15.1247 33.5754 15.4089C33.226 15.5492 32.9244 15.4753 32.6191 15.2362C30.8597 13.8588 28.9307 13.6334 26.9451 14.6101C24.9859 15.5705 24.105 17.2396 24.1527 19.4133C24.1666 20.0094 24.1653 20.0106 23.5659 19.9693C23.4716 19.9618 23.3774 19.9568 23.2856 19.9417C19.875 19.4071 17.0235 17.8657 14.769 15.2487C14.392 14.8079 14.2563 14.8179 14.015 15.3326C13.0851 17.3097 13.3 19.1717 14.6145 20.9122C14.7012 21.0261 14.7942 21.135 14.8834 21.2465C14.5799 21.214 14.2844 21.1292 14.01 20.9961C13.5287 20.7857 13.4093 20.8483 13.4294 21.3617C13.5048 23.1986 14.3581 24.591 15.895 25.5852L16.3688 25.8932C16.0044 25.8682 15.7706 25.8607 15.5381 25.8356C15.1875 25.7968 15.0354 25.9458 15.1875 26.2664C15.3866 26.7393 15.6284 27.1932 15.9101 27.6224C16.7006 28.7344 17.819 29.3742 19.2341 29.6797V29.6772Z" fill="white"/>
</svg>
