<svg width="49" height="48" viewBox="0 0 49 48" fill="none" xmlns="http://www.w3.org/2000/svg">
<path d="M-0.00270844 25.6819V22.3124C0.0990834 21.5611 0.173224 20.7973 0.30769 20.0485C1.27785 14.6392 3.73719 10.0237 7.81264 6.30361C11.1842 3.18743 15.3979 1.12325 19.9334 0.365902C20.7465 0.225661 21.5671 0.124235 22.3852 0.00402832H25.772C26.5449 0.107957 27.324 0.181833 28.0919 0.319569C34.2358 1.42272 39.3003 4.37529 43.1043 9.30752C47.7176 15.2903 49.1766 22.0482 47.5354 29.3983C46.3013 34.924 43.3719 39.4694 38.8642 42.9278C33.3235 47.1851 27.0337 48.7578 20.1295 47.671C15.4382 46.9322 11.3163 44.9162 7.8139 41.7007C3.83103 38.0411 1.35117 33.5471 0.374298 28.2188C0.224752 27.3786 0.122961 26.5284 -0.00270844 25.6819ZM21.2542 25.603V26.174C21.2542 29.2042 21.2521 32.2344 21.2479 35.2646C21.2479 35.8907 21.3484 35.9909 21.9868 35.9921C22.9428 35.9921 23.8991 35.9921 24.8559 35.9921C25.5521 35.9921 25.6614 35.8807 25.6614 35.1707C25.6614 32.1722 25.6614 29.1729 25.6614 26.1728V25.603C26.8012 25.603 27.8656 25.603 28.9288 25.603C29.5571 25.603 29.7343 25.439 29.8085 24.8254C29.9291 23.8187 30.0477 22.812 30.1641 21.8053C30.2182 21.3332 29.9681 21.0402 29.4591 21.0239C28.8949 21.0051 28.3281 21.0239 27.7664 21.0239H25.6941C25.6941 19.8181 25.6463 18.6649 25.7117 17.5179C25.7557 16.7203 26.3074 16.2219 27.128 16.1405C27.8581 16.0679 28.597 16.0792 29.3322 16.0529C29.8211 16.0366 30.0234 15.8563 30.0297 15.3742C30.0406 14.4843 30.0406 13.5941 30.0297 12.7034C30.0297 12.2338 29.806 12.0122 29.3334 12.0084C28.3457 11.9996 27.3554 11.9696 26.3714 12.0272C23.4811 12.1962 21.6903 13.824 21.3447 16.6814C21.1951 17.9336 21.2705 19.2058 21.2454 20.4692C21.2454 20.6483 21.2454 20.8286 21.2454 21.0477C20.372 21.0477 19.574 21.0477 18.776 21.0477C18.1917 21.0477 17.978 21.2606 17.973 21.8353C17.9654 22.8195 17.973 23.8037 17.973 24.7879C17.973 25.3989 18.1841 25.603 18.7886 25.6055C19.5891 25.6055 20.3871 25.603 21.2567 25.603H21.2542Z" fill="white"/>
</svg>
