<svg width="50" height="48" viewBox="0 0 50 48" fill="none" xmlns="http://www.w3.org/2000/svg">
<path d="M0.906116 25.6817V22.3121C1.00791 21.5608 1.08206 20.797 1.21653 20.0482C2.18669 14.6389 4.64478 10.0235 8.72148 6.30336C12.0924 3.18697 16.3057 1.12275 20.841 0.365658C21.6553 0.225417 22.4747 0.123991 23.294 0.00378418H26.6871C27.46 0.107713 28.2391 0.181588 29.0057 0.319325C35.1497 1.42247 40.2141 4.37505 44.0194 9.30728C48.6327 15.2901 50.0917 22.0479 48.4505 29.3981C47.2164 34.9238 44.287 39.4691 39.7793 42.9276C34.2386 47.1849 27.9488 48.7576 21.0446 47.6707C16.3534 46.9319 12.2314 44.916 8.72901 41.7005C4.74028 38.0408 2.25831 33.5469 1.28312 28.2185C1.13106 27.3783 1.03053 26.5281 0.906116 25.6817ZM37.0246 23.995C37.0246 22.5588 37.0385 21.1226 37.0246 19.6864C37.0345 19.0629 36.9853 18.4399 36.8776 17.8257C36.1525 14.3046 33.2935 12.0032 29.6793 11.9982C26.5451 11.9931 23.4109 11.9931 20.2767 11.9982C19.7759 11.9965 19.2762 12.0447 18.785 12.1421C15.2764 12.8734 12.959 15.7133 12.9502 19.2794C12.9427 22.4173 12.9427 25.5552 12.9502 28.6931C12.9483 29.1922 12.9972 29.6901 13.096 30.1794C13.8312 33.6691 16.6889 35.9769 20.2705 35.9831C23.4206 35.9906 26.5702 35.9906 29.7195 35.9831C30.2058 35.9859 30.6912 35.9406 31.1685 35.8479C34.6973 35.1229 37.0146 32.278 37.0272 28.6793C37.0322 27.1179 37.0246 25.5565 37.0246 23.995Z" fill="white"/>
<path d="M34.5854 24.01C34.5854 25.763 34.6319 27.5085 34.5728 29.2565C34.4987 31.4891 32.5031 33.5038 30.2498 33.5426C26.7261 33.6027 23.2006 33.6027 19.6735 33.5426C17.4907 33.5063 15.4448 31.4716 15.4008 29.3016C15.3405 25.8048 15.3405 22.3071 15.4008 18.8086C15.4422 16.4783 17.4668 14.4811 19.7929 14.4461C23.2563 14.3935 26.7198 14.3935 30.1832 14.4461C32.4892 14.4811 34.456 16.4796 34.5816 18.766C34.5904 18.9225 34.6068 19.0778 34.6068 19.2343C34.6068 20.827 34.6068 22.4198 34.6068 24.0125L34.5854 24.01ZM18.7725 23.9724C18.7685 24.7855 18.9255 25.5913 19.2345 26.3438C19.5435 27.0963 19.9984 27.7807 20.5731 28.3578C21.1479 28.9349 21.8313 29.3934 22.5841 29.7071C23.3369 30.0207 24.1444 30.1833 24.9604 30.1856C28.3774 30.1931 31.1886 27.4309 31.1961 24.0626C31.2059 23.2452 31.053 22.4339 30.7463 21.6758C30.4396 20.9176 29.9851 20.2275 29.4092 19.6453C28.8332 19.0631 28.1472 18.6005 27.3907 18.2841C26.6342 17.9677 25.8223 17.8038 25.0019 17.8018C24.1859 17.7984 23.3773 17.9553 22.6223 18.2638C21.8673 18.5722 21.1809 19.026 20.6022 19.5992C20.0235 20.1724 19.564 20.8538 19.2501 21.6042C18.9361 22.3546 18.7738 23.1594 18.7725 23.9724ZM31.2439 19.3069C31.6453 19.3023 32.0295 19.1434 32.3163 18.8635C32.6031 18.5836 32.7704 18.2042 32.7833 17.8043C32.784 17.4038 32.626 17.0191 32.3436 16.734C32.0612 16.4489 31.6773 16.2863 31.2753 16.2817C31.0722 16.2751 30.8699 16.3095 30.6805 16.3828C30.4911 16.456 30.3185 16.5667 30.173 16.7081C30.0276 16.8495 29.9124 17.0187 29.8342 17.2056C29.7561 17.3924 29.7166 17.5931 29.7182 17.7956C29.7263 18.1954 29.89 18.5764 30.1746 18.8584C30.4592 19.1403 30.8426 19.3012 31.2439 19.3069V19.3069Z" fill="white"/>
<path d="M28.8097 24.0539C28.7405 26.1825 26.9749 27.8804 24.9139 27.8028C22.7775 27.7214 21.0735 25.9571 21.1627 23.9124C21.2557 21.7962 22.9811 20.1346 25.032 20.186C27.1571 20.2386 28.875 21.9991 28.8097 24.0539Z" fill="white"/>
</svg>
